<?xml version="1.0" standalone="no"?>
<svg xmlns:xlink="http://www.w3.org/1999/xlink" id="wave" style="transform:rotate(0deg); transition: 0.3s" viewBox="0 0 1440 490" version="1.1" xmlns="http://www.w3.org/2000/svg"><defs><linearGradient id="sw-gradient-0" x1="0" x2="0" y1="1" y2="0"><stop stop-color="rgba(243, 54, 86, 1)" offset="0%"/><stop stop-color="rgba(255, 164, 179, 1)" offset="100%"/></linearGradient></defs><path style="transform:translate(0, 0px); opacity:1" fill="url(#sw-gradient-0)" d="M0,49L80,98C160,147,320,245,480,253.2C640,261,800,180,960,187.8C1120,196,1280,294,1440,334.8C1600,376,1760,359,1920,310.3C2080,261,2240,180,2400,171.5C2560,163,2720,229,2880,212.3C3040,196,3200,98,3360,49C3520,0,3680,0,3840,16.3C4000,33,4160,65,4320,122.5C4480,180,4640,261,4800,310.3C4960,359,5120,376,5280,343C5440,310,5600,229,5760,171.5C5920,114,6080,82,6240,106.2C6400,131,6560,212,6720,204.2C6880,196,7040,98,7200,98C7360,98,7520,196,7680,228.7C7840,261,8000,229,8160,196C8320,163,8480,131,8640,106.2C8800,82,8960,65,9120,89.8C9280,114,9440,180,9600,212.3C9760,245,9920,245,10080,261.3C10240,278,10400,310,10560,277.7C10720,245,10880,147,11040,98C11200,49,11360,49,11440,49L11520,49L11520,490L11440,490C11360,490,11200,490,11040,490C10880,490,10720,490,10560,490C10400,490,10240,490,10080,490C9920,490,9760,490,9600,490C9440,490,9280,490,9120,490C8960,490,8800,490,8640,490C8480,490,8320,490,8160,490C8000,490,7840,490,7680,490C7520,490,7360,490,7200,490C7040,490,6880,490,6720,490C6560,490,6400,490,6240,490C6080,490,5920,490,5760,490C5600,490,5440,490,5280,490C5120,490,4960,490,4800,490C4640,490,4480,490,4320,490C4160,490,4000,490,3840,490C3680,490,3520,490,3360,490C3200,490,3040,490,2880,490C2720,490,2560,490,2400,490C2240,490,2080,490,1920,490C1760,490,1600,490,1440,490C1280,490,1120,490,960,490C800,490,640,490,480,490C320,490,160,490,80,490L0,490Z"/><defs><linearGradient id="sw-gradient-1" x1="0" x2="0" y1="1" y2="0"><stop stop-color="rgba(74, 0, 123, 1)" offset="0%"/><stop stop-color="rgba(241, 220, 255, 1)" offset="100%"/></linearGradient></defs><path style="transform:translate(0, 50px); opacity:0.9" fill="url(#sw-gradient-1)" d="M0,98L80,122.5C160,147,320,196,480,245C640,294,800,343,960,302.2C1120,261,1280,131,1440,122.5C1600,114,1760,229,1920,294C2080,359,2240,376,2400,343C2560,310,2720,229,2880,236.8C3040,245,3200,343,3360,375.7C3520,408,3680,376,3840,310.3C4000,245,4160,147,4320,114.3C4480,82,4640,114,4800,106.2C4960,98,5120,49,5280,81.7C5440,114,5600,229,5760,294C5920,359,6080,376,6240,334.8C6400,294,6560,196,6720,155.2C6880,114,7040,131,7200,155.2C7360,180,7520,212,7680,220.5C7840,229,8000,212,8160,220.5C8320,229,8480,261,8640,277.7C8800,294,8960,294,9120,285.8C9280,278,9440,261,9600,245C9760,229,9920,212,10080,245C10240,278,10400,359,10560,326.7C10720,294,10880,147,11040,81.7C11200,16,11360,33,11440,40.8L11520,49L11520,490L11440,490C11360,490,11200,490,11040,490C10880,490,10720,490,10560,490C10400,490,10240,490,10080,490C9920,490,9760,490,9600,490C9440,490,9280,490,9120,490C8960,490,8800,490,8640,490C8480,490,8320,490,8160,490C8000,490,7840,490,7680,490C7520,490,7360,490,7200,490C7040,490,6880,490,6720,490C6560,490,6400,490,6240,490C6080,490,5920,490,5760,490C5600,490,5440,490,5280,490C5120,490,4960,490,4800,490C4640,490,4480,490,4320,490C4160,490,4000,490,3840,490C3680,490,3520,490,3360,490C3200,490,3040,490,2880,490C2720,490,2560,490,2400,490C2240,490,2080,490,1920,490C1760,490,1600,490,1440,490C1280,490,1120,490,960,490C800,490,640,490,480,490C320,490,160,490,80,490L0,490Z"/></svg>