<?xml version="1.0" standalone="no"?>
<svg xmlns:xlink="http://www.w3.org/1999/xlink" id="wave" style="transform:rotate(0deg); transition: 0.3s" viewBox="0 0 1440 490" version="1.1" xmlns="http://www.w3.org/2000/svg"><defs><linearGradient id="sw-gradient-0" x1="0" x2="0" y1="1" y2="0"><stop stop-color="rgba(243, 54, 86, 1)" offset="0%"/><stop stop-color="rgba(255, 164, 179, 1)" offset="100%"/></linearGradient></defs><path style="transform:translate(0, 0px); opacity:1" fill="url(#sw-gradient-0)" d="M0,294L40,269.5C80,245,160,196,240,187.8C320,180,400,212,480,245C560,278,640,310,720,334.8C800,359,880,376,960,334.8C1040,294,1120,196,1200,138.8C1280,82,1360,65,1440,81.7C1520,98,1600,147,1680,204.2C1760,261,1840,327,1920,334.8C2000,343,2080,294,2160,277.7C2240,261,2320,278,2400,277.7C2480,278,2560,261,2640,253.2C2720,245,2800,245,2880,204.2C2960,163,3040,82,3120,57.2C3200,33,3280,65,3360,114.3C3440,163,3520,229,3600,277.7C3680,327,3760,359,3840,326.7C3920,294,4000,196,4080,147C4160,98,4240,98,4320,130.7C4400,163,4480,229,4560,236.8C4640,245,4720,196,4800,196C4880,196,4960,245,5040,285.8C5120,327,5200,359,5280,351.2C5360,343,5440,294,5520,285.8C5600,278,5680,310,5720,326.7L5760,343L5760,490L5720,490C5680,490,5600,490,5520,490C5440,490,5360,490,5280,490C5200,490,5120,490,5040,490C4960,490,4880,490,4800,490C4720,490,4640,490,4560,490C4480,490,4400,490,4320,490C4240,490,4160,490,4080,490C4000,490,3920,490,3840,490C3760,490,3680,490,3600,490C3520,490,3440,490,3360,490C3280,490,3200,490,3120,490C3040,490,2960,490,2880,490C2800,490,2720,490,2640,490C2560,490,2480,490,2400,490C2320,490,2240,490,2160,490C2080,490,2000,490,1920,490C1840,490,1760,490,1680,490C1600,490,1520,490,1440,490C1360,490,1280,490,1200,490C1120,490,1040,490,960,490C880,490,800,490,720,490C640,490,560,490,480,490C400,490,320,490,240,490C160,490,80,490,40,490L0,490Z"/><defs><linearGradient id="sw-gradient-1" x1="0" x2="0" y1="1" y2="0"><stop stop-color="rgba(74, 0, 123, 1)" offset="0%"/><stop stop-color="rgba(241, 220, 255, 1)" offset="100%"/></linearGradient></defs><path style="transform:translate(0, 50px); opacity:0.9" fill="url(#sw-gradient-1)" d="M0,147L40,187.8C80,229,160,310,240,285.8C320,261,400,131,480,98C560,65,640,131,720,179.7C800,229,880,261,960,253.2C1040,245,1120,196,1200,179.7C1280,163,1360,180,1440,163.3C1520,147,1600,98,1680,89.8C1760,82,1840,114,1920,155.2C2000,196,2080,245,2160,220.5C2240,196,2320,98,2400,57.2C2480,16,2560,33,2640,98C2720,163,2800,278,2880,343C2960,408,3040,425,3120,424.7C3200,425,3280,408,3360,351.2C3440,294,3520,196,3600,187.8C3680,180,3760,261,3840,294C3920,327,4000,310,4080,326.7C4160,343,4240,392,4320,383.8C4400,376,4480,310,4560,236.8C4640,163,4720,82,4800,89.8C4880,98,4960,196,5040,236.8C5120,278,5200,261,5280,253.2C5360,245,5440,245,5520,212.3C5600,180,5680,114,5720,81.7L5760,49L5760,490L5720,490C5680,490,5600,490,5520,490C5440,490,5360,490,5280,490C5200,490,5120,490,5040,490C4960,490,4880,490,4800,490C4720,490,4640,490,4560,490C4480,490,4400,490,4320,490C4240,490,4160,490,4080,490C4000,490,3920,490,3840,490C3760,490,3680,490,3600,490C3520,490,3440,490,3360,490C3280,490,3200,490,3120,490C3040,490,2960,490,2880,490C2800,490,2720,490,2640,490C2560,490,2480,490,2400,490C2320,490,2240,490,2160,490C2080,490,2000,490,1920,490C1840,490,1760,490,1680,490C1600,490,1520,490,1440,490C1360,490,1280,490,1200,490C1120,490,1040,490,960,490C880,490,800,490,720,490C640,490,560,490,480,490C400,490,320,490,240,490C160,490,80,490,40,490L0,490Z"/></svg>