<?xml version="1.0" standalone="no"?><svg id="wave" style="transform:rotate(0deg); transition: 0.3s" viewBox="0 0 1440 360" version="1.1" xmlns="http://www.w3.org/2000/svg"><defs><linearGradient id="sw-gradient-0" x1="0" x2="0" y1="1" y2="0"><stop stop-color="rgba(67, 56, 202, 1)" offset="0%"></stop><stop stop-color="rgba(165, 180, 252, 1)" offset="100%"></stop></linearGradient></defs><path style="transform:translate(0, 0px); opacity:1" fill="url(#sw-gradient-0)" d="M0,72L26.7,102C53.3,132,107,192,160,180C213.3,168,267,84,320,42C373.3,0,427,0,480,48C533.3,96,587,192,640,216C693.3,240,747,192,800,198C853.3,204,907,264,960,282C1013.3,300,1067,276,1120,234C1173.3,192,1227,132,1280,108C1333.3,84,1387,96,1440,96C1493.3,96,1547,84,1600,72C1653.3,60,1707,48,1760,54C1813.3,60,1867,84,1920,78C1973.3,72,2027,36,2080,72C2133.3,108,2187,216,2240,264C2293.3,312,2347,300,2400,252C2453.3,204,2507,120,2560,84C2613.3,48,2667,60,2720,66C2773.3,72,2827,72,2880,108C2933.3,144,2987,216,3040,258C3093.3,300,3147,312,3200,306C3253.3,300,3307,276,3360,240C3413.3,204,3467,156,3520,126C3573.3,96,3627,84,3680,96C3733.3,108,3787,144,3813,162L3840,180L3840,360L3813.3,360C3786.7,360,3733,360,3680,360C3626.7,360,3573,360,3520,360C3466.7,360,3413,360,3360,360C3306.7,360,3253,360,3200,360C3146.7,360,3093,360,3040,360C2986.7,360,2933,360,2880,360C2826.7,360,2773,360,2720,360C2666.7,360,2613,360,2560,360C2506.7,360,2453,360,2400,360C2346.7,360,2293,360,2240,360C2186.7,360,2133,360,2080,360C2026.7,360,1973,360,1920,360C1866.7,360,1813,360,1760,360C1706.7,360,1653,360,1600,360C1546.7,360,1493,360,1440,360C1386.7,360,1333,360,1280,360C1226.7,360,1173,360,1120,360C1066.7,360,1013,360,960,360C906.7,360,853,360,800,360C746.7,360,693,360,640,360C586.7,360,533,360,480,360C426.7,360,373,360,320,360C266.7,360,213,360,160,360C106.7,360,53,360,27,360L0,360Z"></path></svg>