<?xml version="1.0" standalone="no"?>
<svg xmlns:xlink="http://www.w3.org/1999/xlink" id="wave" style="transform:rotate(180deg); transition: 0.3s" viewBox="0 0 1440 390" version="1.1" xmlns="http://www.w3.org/2000/svg"><defs><linearGradient id="sw-gradient-0" x1="0" x2="0" y1="1" y2="0"><stop stop-color="rgba(192, 132, 252, 1)" offset="0%"/><stop stop-color="rgba(109, 40, 217, 1)" offset="100%"/></linearGradient></defs><path style="transform:translate(0, 0px); opacity:1" fill="url(#sw-gradient-0)" d="M0,234L30,201.5C60,169,120,104,180,104C240,104,300,169,360,221C420,273,480,312,540,299C600,286,660,221,720,201.5C780,182,840,208,900,188.5C960,169,1020,104,1080,97.5C1140,91,1200,143,1260,162.5C1320,182,1380,169,1440,149.5C1500,130,1560,104,1620,97.5C1680,91,1740,104,1800,117C1860,130,1920,143,1980,162.5C2040,182,2100,208,2160,208C2220,208,2280,182,2340,143C2400,104,2460,52,2520,32.5C2580,13,2640,26,2700,71.5C2760,117,2820,195,2880,195C2940,195,3000,117,3060,91C3120,65,3180,91,3240,84.5C3300,78,3360,39,3420,39C3480,39,3540,78,3600,97.5C3660,117,3720,117,3780,130C3840,143,3900,169,3960,169C4020,169,4080,143,4140,143C4200,143,4260,169,4290,182L4320,195L4320,390L4290,390C4260,390,4200,390,4140,390C4080,390,4020,390,3960,390C3900,390,3840,390,3780,390C3720,390,3660,390,3600,390C3540,390,3480,390,3420,390C3360,390,3300,390,3240,390C3180,390,3120,390,3060,390C3000,390,2940,390,2880,390C2820,390,2760,390,2700,390C2640,390,2580,390,2520,390C2460,390,2400,390,2340,390C2280,390,2220,390,2160,390C2100,390,2040,390,1980,390C1920,390,1860,390,1800,390C1740,390,1680,390,1620,390C1560,390,1500,390,1440,390C1380,390,1320,390,1260,390C1200,390,1140,390,1080,390C1020,390,960,390,900,390C840,390,780,390,720,390C660,390,600,390,540,390C480,390,420,390,360,390C300,390,240,390,180,390C120,390,60,390,30,390L0,390Z"/><defs><linearGradient id="sw-gradient-1" x1="0" x2="0" y1="1" y2="0"><stop stop-color="rgba(109, 40, 217, 1)" offset="0%"/><stop stop-color="rgba(192, 132, 252, 1)" offset="100%"/></linearGradient></defs><path style="transform:translate(0, 50px); opacity:0.9" fill="url(#sw-gradient-1)" d="M0,351L30,344.5C60,338,120,325,180,305.5C240,286,300,260,360,253.5C420,247,480,260,540,247C600,234,660,195,720,162.5C780,130,840,104,900,110.5C960,117,1020,156,1080,195C1140,234,1200,273,1260,247C1320,221,1380,130,1440,117C1500,104,1560,169,1620,175.5C1680,182,1740,130,1800,97.5C1860,65,1920,52,1980,39C2040,26,2100,13,2160,19.5C2220,26,2280,52,2340,110.5C2400,169,2460,260,2520,305.5C2580,351,2640,351,2700,312C2760,273,2820,195,2880,149.5C2940,104,3000,91,3060,97.5C3120,104,3180,130,3240,130C3300,130,3360,104,3420,97.5C3480,91,3540,104,3600,130C3660,156,3720,195,3780,195C3840,195,3900,156,3960,143C4020,130,4080,143,4140,162.5C4200,182,4260,208,4290,221L4320,234L4320,390L4290,390C4260,390,4200,390,4140,390C4080,390,4020,390,3960,390C3900,390,3840,390,3780,390C3720,390,3660,390,3600,390C3540,390,3480,390,3420,390C3360,390,3300,390,3240,390C3180,390,3120,390,3060,390C3000,390,2940,390,2880,390C2820,390,2760,390,2700,390C2640,390,2580,390,2520,390C2460,390,2400,390,2340,390C2280,390,2220,390,2160,390C2100,390,2040,390,1980,390C1920,390,1860,390,1800,390C1740,390,1680,390,1620,390C1560,390,1500,390,1440,390C1380,390,1320,390,1260,390C1200,390,1140,390,1080,390C1020,390,960,390,900,390C840,390,780,390,720,390C660,390,600,390,540,390C480,390,420,390,360,390C300,390,240,390,180,390C120,390,60,390,30,390L0,390Z"/></svg>